<?xml version="1.0" standalone="no"?>
<!DOCTYPE svg PUBLIC "-//W3C//DTD SVG 1.1//EN"
  "http://www.w3.org/Graphics/SVG/1.1/DTD/svg11.dtd">
<svg width="80.00000000001057mm" height="122.50000381469727mm" viewBox="-1.000000000010567 -65.30000305175781 80.00000000001057 122.50000381469727" xmlns="http://www.w3.org/2000/svg" version="1.1">
	<title>svgOutput</title>
	<desc>made with tinkercad</desc>
<path d="M 45.64099884033203 -64.11799621582031 L 48.553001403808594 -63.57600021362305 L 49.152000427246094 -63.387447357177734 L 51.409000396728516 -62.676998138427734 L 54.180999755859375 -61.43000030517578 L 56.84199905395508 -59.847999572753906 L 57.34400177001953 -59.4698600769043 L 59.367000579833984 -57.94599914550781 L 61.731998443603516 -55.742000579833984 L 63.91299819946289 -53.257999420166016 L 65.53600311279297 -51.0078010559082 L 65.88999938964844 -50.516998291015625 L 66.69558715820312 -49.152000427246094 L 67.64399719238281 -47.54499816894531 L 69.15799713134766 -44.37200164794922 L 70.41600036621094 -41.027000427246094 L 70.4350814819336 -40.959999084472656 L 71.40799713134766 -37.54399871826172 L 71.54365539550781 -36.86399841308594 L 72.1240005493164 -33.95500183105469 L 72.26410675048828 -32.768001556396484 L 72.55599975585938 -30.295000076293945 L 72.66899871826172 -27.399999618530273 L 72.80000305175781 -27.399999618530273 L 72.80000305175781 -24.576000213623047 L 72.80000305175781 -21.516117095947266 L 72.80000305175781 -16.384000778198242 L 72.80000305175781 -4.511970520019531 L 72.80000305175781 -4.199999809265137 L 65.53600311279297 -4.199999809265137 L 60.70000076293945 -4.199999809265137 L 54.8220329284668 -4.199999809265137 L 53.400001525878906 -4.199999809265137 L 53.400001525878906 -16.384000778198242 L 53.400001525878906 -21.176029205322266 L 53.400001525878906 -24.576000213623047 L 53.400001525878906 -26.600000381469727 L 49.152000427246094 -26.600000381469727 L 32.768001556396484 -26.600000381469727 L 32.20000076293945 -26.600000381469727 L 32.20000076293945 -24.576000213623047 L 32.20000076293945 -16.384000778198242 L 32.20000076293945 -4.099999904632568 L 16.384000778198242 -4.099999904632568 L 12.800000190734863 -4.099999904632568 L 12.800000190734863 -16.384000778198242 L 12.800000190734863 -26.600000381469727 L 12.699999809265137 -26.600000381469727 L 12.843999862670898 -30.295000076293945 L 13.135894775390625 -32.768001556396484 L 13.276000022888184 -33.95500183105469 L 13.991999626159668 -37.54399871826172 L 14.964917182922363 -40.959999084472656 L 14.984000205993652 -41.027000427246094 L 16.242000579833984 -44.37200164794922 L 16.384000778198242 -44.66960144042969 L 17.756000518798828 -47.54499816894531 L 18.704410552978516 -49.152000427246094 L 19.510000228881836 -50.516998291015625 L 21.48699951171875 -53.257999420166016 L 23.667999267578125 -55.742000579833984 L 26.033000946044922 -57.94599914550781 L 28.558000564575195 -59.847999572753906 L 31.219999313354492 -61.43000030517578 L 32.768001556396484 -62.12662887573242 L 33.99100112915039 -62.676998138427734 L 36.84700012207031 -63.57600021362305 L 36.86399841308594 -63.57916259765625 L 39.75899887084961 -64.11799621582031 L 40.959999084472656 -64.19232177734375 L 41.587486267089844 -64.23115539550781 L 42.70000076293945 -64.30000305175781 L 43.007999420166016 -64.28093719482422 L 45.055999755859375 -64.15420532226562 L 45.64099884033203 -64.11799621582031 M 0 56.20000076293945 L 0 49.152000427246094 L 5.060486318181345e-12 48.28659439086914 L -1.0567028155272773e-11 48.28074645996094 L 0 45.055999755859375 L 0 40.959999084472656 L 0 37.18458557128906 L 0 37.18080520629883 L 0 37.17898178100586 L 0 36.86399841308594 L 0 32.768001556396484 L 0 30 L 16.384000778198242 30 L 32.768001556396484 30 L 49.152000427246094 30 L 65.53600311279297 30 L 78 30 L 78 32.768001556396484 L 78 38.669288635253906 L 78 40.959999084472656 L 78 49.152000427246094 L 78 56.20000076293945 L 65.53600311279297 56.20000076293945 L 49.152000427246094 56.20000076293945 L 32.768001556396484 56.20000076293945 L 16.384000778198242 56.20000076293945 L 0 56.20000076293945 M 50 5 L 50 12.597999572753906 L 49.152000427246094 12.597999572753906 L 40.959999084472656 12.597999572753906 L 32.768001556396484 12.597999572753906 L 24.576000213623047 12.597999572753906 L 16.384000778198242 12.597999572753906 L 9.100000381469727 12.597999572753906 L 9.100000381469727 8.192000389099121 L 9.100000381469727 5 L 16.384000778198242 5 L 32.768001556396484 5 L 33.095001220703125 5 L 33.388999938964844 6.508999824523926 L 34.44447326660156 8.192000389099121 L 34.5260009765625 8.321999549865723 L 36.29599380493164 9.760994911193848 L 36.29600143432617 9.76099967956543 L 36.63399887084961 9.900833129882812 L 38.493167877197266 10.670000076293945 L 38.527000427246094 10.684000015258789 L 38.527008056640625 10.684000968933105 L 40.959999084472656 10.99783992767334 L 41 11.003000259399414 L 43.472991943359375 10.684000968933105 L 43.472999572753906 10.684000015258789 L 43.506832122802734 10.670000076293945 L 45.36600112915039 9.900833129882812 L 45.70399856567383 9.76099967956543 L 45.70400619506836 9.760994911193848 L 47.4739990234375 8.321999549865723 L 47.55552673339844 8.192000389099121 L 48.611000061035156 6.508999824523926 L 48.904998779296875 5 L 49.152000427246094 5 L 50 5 M 50 20.80299949645996 L 50 24.576000213623047 L 50 25 L 49.152000427246094 25 L 32.768001556396484 25 L 16.384000778198242 25 L 9.100000381469727 25 L 9.100000381469727 24.576000213623047 L 9.100000381469727 20.80299949645996 L 12.288000106811523 20.80299949645996 L 16.384000778198242 20.80299949645996 L 23.615999221801758 20.80299949645996 L 24.576000213623047 20.80299949645996 L 32.768001556396484 20.80299949645996 L 40.959999084472656 20.80299949645996 L 45.055999755859375 20.80299949645996 L 46.799224853515625 20.80299949645996 L 49.152000427246094 20.80299949645996 L 50 20.80299949645996 M 32.73500061035156 45.8650016784668 L 32.768001556396484 45.87025833129883 L 33.60100173950195 46.00299835205078 L 34.46699905395508 45.8650016784668 L 35.24800109863281 45.46699905395508 L 35.659000396728516 45.055999755859375 L 35.867000579833984 44.847999572753906 L 36.26499938964844 44.06700134277344 L 36.40299987792969 43.20100021362305 L 36.26499938964844 42.334999084472656 L 35.867000579833984 41.55500030517578 L 35.2729606628418 40.959999084472656 L 35.24800109863281 40.935001373291016 L 34.46699905395508 40.5369987487793 L 33.60100173950195 40.400001525878906 L 32.768001556396484 40.53178024291992 L 32.73500061035156 40.5369987487793 L 31.954999923706055 40.935001373291016 L 31.93000030517578 40.959999084472656 L 31.334999084472656 41.55500030517578 L 30.937000274658203 42.334999084472656 L 30.799999237060547 43.20100021362305 L 30.937000274658203 44.06700134277344 L 31.334999084472656 44.847999572753906 L 31.543336868286133 45.055999755859375 L 31.954999923706055 45.46699905395508 L 32.73500061035156 45.8650016784668 M 67.95500183105469 40.53300094604492 L 67.52731323242188 40.959999084472656 L 67.33499908447266 41.152000427246094 L 66.93699645996094 41.93299865722656 L 66.80000305175781 42.79899978637695 L 66.93699645996094 43.665000915527344 L 67.33499908447266 44.44499969482422 L 67.94599914550781 45.055999755859375 L 67.95500183105469 45.064998626708984 L 68.73500061035156 45.4630012512207 L 69.60099792480469 45.599998474121094 L 70.46700286865234 45.4630012512207 L 71.24800109863281 45.064998626708984 L 71.25698852539062 45.055999755859375 L 71.86699676513672 44.44499969482422 L 72.26499938964844 43.665000915527344 L 72.40299987792969 42.79899978637695 L 72.26499938964844 41.93299865722656 L 71.86699676513672 41.152000427246094 L 71.67500305175781 40.959999084472656 L 71.24800109863281 40.53300094604492 L 70.46700286865234 40.1349983215332 L 69.60099792480469 39.99800109863281 L 68.73500061035156 40.1349983215332 L 67.95500183105469 40.53300094604492 M 22.867000579833984 41.75600051879883 L 22.24799919128418 41.13600158691406 L 21.902633666992188 40.959999084472656 L 21.466999053955078 40.737998962402344 L 20.60099983215332 40.60100173950195 L 19.735000610351562 40.737998962402344 L 19.299924850463867 40.959999084472656 L 18.954999923706055 41.13600158691406 L 18.334999084472656 41.75600051879883 L 17.937000274658203 42.5369987487793 L 17.799999237060547 43.402000427246094 L 17.937000274658203 44.268001556396484 L 18.334999084472656 45.04899978637695 L 18.341999053955078 45.055999755859375 L 18.954999923706055 45.66899871826172 L 19.735000610351562 46.06700134277344 L 20.60099983215332 46.20399856567383 L 21.466999053955078 46.06700134277344 L 22.24799919128418 45.66899871826172 L 22.86001205444336 45.055999755859375 L 22.867000579833984 45.04899978637695 L 23.264999389648438 44.268001556396484 L 23.402999877929688 43.402000427246094 L 23.264999389648438 42.5369987487793 L 22.867000579833984 41.75600051879883 M 19.100000381469727 -35.40299987792969 L 18.697999954223633 -35.3390007019043 L 18.333999633789062 -35.15399932861328 L 18.04599952697754 -34.86600112915039 L 18.020517349243164 -34.816001892089844 L 17.861000061035156 -34.50299835205078 L 17.797000885009766 -34.099998474121094 L 17.861000061035156 -33.698001861572266 L 18.04599952697754 -33.33399963378906 L 18.333999633789062 -33.04600143432617 L 18.43199920654297 -32.996192932128906 L 18.697999954223633 -32.861000061035156 L 19.100000381469727 -32.79800033569336 L 19.50200080871582 -32.861000061035156 L 19.865999221801758 -33.04600143432617 L 20.15399932861328 -33.33399963378906 L 20.339000701904297 -33.698001861572266 L 20.353965759277344 -33.79199981689453 L 20.402999877929688 -34.099998474121094 L 20.339000701904297 -34.50299835205078 L 20.179481506347656 -34.816001892089844 L 20.15399932861328 -34.86600112915039 L 19.865999221801758 -35.15399932861328 L 19.50200080871582 -35.3390007019043 L 19.100000381469727 -35.40299987792969 M 15.119000434875488 22.732999801635742 L 15.086810111999512 22.527999877929688 L 15.062000274658203 22.3700008392334 L 14.895000457763672 22.042999267578125 L 14.63599967956543 21.784000396728516 L 14.309000015258789 21.617000579833984 L 13.946000099182129 21.55900001525879 L 13.583999633789062 21.617000579833984 L 13.256999969482422 21.784000396728516 L 12.996999740600586 22.042999267578125 L 12.829999923706055 22.3700008392334 L 12.805190086364746 22.527999877929688 L 12.77299976348877 22.732999801635742 L 12.829999923706055 23.094999313354492 L 12.996999740600586 23.422000885009766 L 13.256999969482422 23.68199920654297 L 13.583999633789062 23.849000930786133 L 13.946000099182129 23.9060001373291 L 14.309000015258789 23.849000930786133 L 14.63599967956543 23.68199920654297 L 14.895000457763672 23.422000885009766 L 15.062000274658203 23.094999313354492 L 15.119000434875488 22.732999801635742 M 43.702999114990234 -61.099998474121094 L 43.64900588989258 -61.439998626708984 L 43.638999938964844 -61.50299835205078 L 43.45399856567383 -61.86600112915039 L 43.16600036621094 -62.15399932861328 L 43.007999420166016 -62.23452377319336 L 42.803001403808594 -62.3390007019043 L 42.400001525878906 -62.40299987792969 L 41.99800109863281 -62.3390007019043 L 41.63399887084961 -62.15399932861328 L 41.34600067138672 -61.86600112915039 L 41.1609992980957 -61.50299835205078 L 41.15114974975586 -61.439998626708984 L 41.097999572753906 -61.099998474121094 L 41.1609992980957 -60.698001861572266 L 41.34600067138672 -60.33399963378906 L 41.63399887084961 -60.04600143432617 L 41.99800109863281 -59.861000061035156 L 42.400001525878906 -59.79800033569336 L 42.803001403808594 -59.861000061035156 L 43.007999420166016 -59.965476989746094 L 43.16600036621094 -60.04600143432617 L 43.45399856567383 -60.33399963378906 L 43.638999938964844 -60.698001861572266 L 43.702999114990234 -61.099998474121094 M 46.43199920654297 22.3700008392334 L 46.26599884033203 22.042999267578125 L 46.00600051879883 21.784000396728516 L 45.67900085449219 21.617000579833984 L 45.31700134277344 21.55900001525879 L 45.055999755859375 21.6007022857666 L 44.95399856567383 21.617000579833984 L 44.62699890136719 21.784000396728516 L 44.367000579833984 22.042999267578125 L 44.20100021362305 22.3700008392334 L 44.143001556396484 22.732999801635742 L 44.20100021362305 23.094999313354492 L 44.367000579833984 23.422000885009766 L 44.62699890136719 23.68199920654297 L 44.95399856567383 23.849000930786133 L 45.055999755859375 23.86501693725586 L 45.31700134277344 23.9060001373291 L 45.67900085449219 23.849000930786133 L 46.00600051879883 23.68199920654297 L 46.26599884033203 23.422000885009766 L 46.43199920654297 23.094999313354492 L 46.4900016784668 22.732999801635742 L 46.43199920654297 22.3700008392334 M 65.03399658203125 -33.04600143432617 L 65.39700317382812 -32.861000061035156 L 65.53600311279297 -32.839271545410156 L 65.80000305175781 -32.79800033569336 L 66.2020034790039 -32.861000061035156 L 66.56600189208984 -33.04600143432617 L 66.85399627685547 -33.33399963378906 L 67.03900146484375 -33.698001861572266 L 67.10199737548828 -34.099998474121094 L 67.03900146484375 -34.50299835205078 L 66.87947845458984 -34.816001892089844 L 66.85399627685547 -34.86600112915039 L 66.56600189208984 -35.15399932861328 L 66.2020034790039 -35.3390007019043 L 65.80000305175781 -35.40299987792969 L 65.53600311279297 -35.3610725402832 L 65.39700317382812 -35.3390007019043 L 65.03399658203125 -35.15399932861328 L 64.74600219726562 -34.86600112915039 L 64.72052001953125 -34.816001892089844 L 64.56099700927734 -34.50299835205078 L 64.49700164794922 -34.099998474121094 L 64.56099700927734 -33.698001861572266 L 64.74600219726562 -33.33399963378906 L 65.03399658203125 -33.04600143432617 M 59.867000579833984 41.35300064086914 L 59.4739990234375 40.959999084472656 L 59.24800109863281 40.73400115966797 L 58.46699905395508 40.33599853515625 L 57.60100173950195 40.19900131225586 L 56.73500061035156 40.33599853515625 L 55.95500183105469 40.73400115966797 L 55.728633880615234 40.959999084472656 L 55.334999084472656 41.35300064086914 L 54.9370002746582 42.13399887084961 L 54.79999923706055 43 L 54.9370002746582 43.86600112915039 L 55.334999084472656 44.64699935913086 L 55.744659423828125 45.055999755859375 L 55.95500183105469 45.26599884033203 L 56.73500061035156 45.66400146484375 L 57.34400177001953 45.76034164428711 L 57.60100173950195 45.80099868774414 L 58.46699905395508 45.66400146484375 L 59.24800109863281 45.26599884033203 L 59.45800018310547 45.055999755859375 L 59.867000579833984 44.64699935913086 L 60.26499938964844 43.86600112915039 L 60.40299987792969 43 L 60.26499938964844 42.13399887084961 L 59.867000579833984 41.35300064086914 M 43.95500183105469 45.26599884033203 L 44.73500061035156 45.66400146484375 L 45.60100173950195 45.80099868774414 L 46.46699905395508 45.66400146484375 L 47.24800109863281 45.26599884033203 L 47.45800018310547 45.055999755859375 L 47.867000579833984 44.64699935913086 L 48.26499938964844 43.86600112915039 L 48.40299987792969 43 L 48.26499938964844 42.13399887084961 L 47.867000579833984 41.35300064086914 L 47.4739990234375 40.959999084472656 L 47.24800109863281 40.73400115966797 L 46.46699905395508 40.33599853515625 L 45.60100173950195 40.19900131225586 L 44.73500061035156 40.33599853515625 L 43.95500183105469 40.73400115966797 L 43.728633880615234 40.959999084472656 L 43.334999084472656 41.35300064086914 L 42.9370002746582 42.13399887084961 L 42.79999923706055 43 L 42.9370002746582 43.86600112915039 L 43.334999084472656 44.64699935913086 L 43.744659423828125 45.055999755859375 L 43.95500183105469 45.26599884033203 z" fill="none" stroke="rgb(0,0,255)" stroke-width="0.01mm" />
</svg>